<?xml version="1.0" encoding="utf-8"?>
<svg version="1.1" xmlns:xlink="http://www.w3.org/1999/xlink" width="39px" height="39px" xmlns="http://www.w3.org/2000/svg">
  <g transform="matrix(1 0 0 1 -168 -698 )">
    <path d="M 187.5 698  C 198.42000000000002 698  207 706.58  207 717.5  C 207 728.42  198.42000000000002 737  187.5 737  C 176.57999999999998 737  168 728.42  168 717.5  C 168 706.58  176.57999999999998 698  187.5 698  Z " fill-rule="nonzero" fill="#ffffff" stroke="none" />
    <path d="M 187.5 698.5  C 198.14 698.5  206.5 706.86  206.5 717.5  C 206.5 728.14  198.14 736.5  187.5 736.5  C 176.86 736.5  168.5 728.14  168.5 717.5  C 168.5 706.86  176.86 698.5  187.5 698.5  Z " stroke-width="1" stroke="#797979" fill="none" />
  </g>
</svg>