<?xml version="1.0" encoding="utf-8"?>
<svg version="1.1" xmlns:xlink="http://www.w3.org/1999/xlink" width="31px" height="31px" xmlns="http://www.w3.org/2000/svg">
  <g transform="matrix(1 0 0 1 -16 -947 )">
    <path d="M 31.5 947  C 40.18 947  47 953.82  47 962.5  C 47 971.18  40.18 978  31.5 978  C 22.82 978  16 971.18  16 962.5  C 16 953.82  22.82 947  31.5 947  Z " fill-rule="nonzero" fill="#ffffff" stroke="none" />
    <path d="M 31.5 947.5  C 39.900000000000006 947.5  46.5 954.1  46.5 962.5  C 46.5 970.9  39.900000000000006 977.5  31.5 977.5  C 23.1 977.5  16.5 970.9  16.5 962.5  C 16.5 954.1  23.1 947.5  31.5 947.5  Z " stroke-width="1" stroke="#797979" fill="none" />
  </g>
</svg>