<?xml version="1.0" encoding="utf-8"?>
<svg version="1.1" xmlns:xlink="http://www.w3.org/1999/xlink" width="177px" height="142px" xmlns="http://www.w3.org/2000/svg">
  <g transform="matrix(1 0 0 1 -10 -1740 )">
    <path d="M 10 1740  L 187 1740  L 187 1882  L 10 1882  L 10 1740  " fill-rule="nonzero" fill="#cccccc" stroke="none" />
    <path d="M 20 1750  L 177 1750  L 177 1872  L 20 1872  L 20 1750  " fill-rule="nonzero" fill="#ffffff" stroke="none" />
    <path d="M 112.69 1782.6  C 106.726 1782.6  102.04 1777.9139999999998  102.04 1771.9499999999998  C 102.04 1765.9859999999999  106.726 1761.3  112.69 1761.3  C 118.654 1761.3  123.34 1765.9859999999999  123.34 1771.9499999999998  C 123.34 1777.9139999999998  118.654 1782.6  112.69 1782.6  " fill-rule="nonzero" fill="#cccccc" stroke="none" />
    <path d="M 24 1869  L 24 1805.75  L 61.5 1777  L 114 1813.6440677966102  L 144 1794.25  L 174 1813.6440677966102  L 174 1869  L 24 1869  " fill-rule="nonzero" fill="#169bd5" stroke="none" />
  </g>
</svg>