<?xml version="1.0" encoding="utf-8"?>
<svg version="1.1" xmlns:xlink="http://www.w3.org/1999/xlink" width="233px" height="133px" xmlns="http://www.w3.org/2000/svg">
  <g transform="matrix(1 0 0 1 -112 -66 )">
    <path d="M 112 66  L 345 66  L 345 199  L 112 199  L 112 66  " fill-rule="nonzero" fill="#cccccc" stroke="none" />
    <path d="M 121 75  L 336 75  L 336 190  L 121 190  L 121 75  " fill-rule="nonzero" fill="#ffffff" stroke="none" />
    <path d="M 243.13500000000002 105.9  C 237.54900000000004 105.9  233.16000000000003 101.51100000000001  233.16000000000003 95.92500000000001  C 233.16000000000003 90.339  237.54900000000004 85.95  243.13500000000002 85.95  C 248.721 85.95  253.11 90.339  253.11 95.92500000000001  C 253.11 101.51100000000001  248.721 105.9  243.13500000000002 105.9  " fill-rule="nonzero" fill="#cccccc" stroke="none" />
    <path d="M 125 187  L 125 127.6  L 177 100.6  L 249.8 150.01115879828325  L 291.4 116.8  L 333 150.01115879828325  L 333 187  L 125 187  " fill-rule="nonzero" fill="#169bd5" stroke="none" />
  </g>
</svg>